<?xml version="1.0" standalone="no"?><!DOCTYPE svg PUBLIC "-//W3C//DTD SVG 1.1//EN" "http://www.w3.org/Graphics/SVG/1.1/DTD/svg11.dtd"><svg t="1642773119744" class="icon" viewBox="0 0 1024 1024" version="1.1" xmlns="http://www.w3.org/2000/svg" p-id="9325" xmlns:xlink="http://www.w3.org/1999/xlink" width="32" height="32"><defs><style type="text/css"></style></defs><path d="M826.026667 34.133333H197.973333c-37.546667 0-68.266667 30.72-68.266666 68.266667v887.466667L512 791.893333 894.293333 989.866667V102.4c0-37.546667-30.72-68.266667-68.266666-68.266667zM653.653333 442.026667h-100.693333v100.693333c0 23.893333-18.773333 42.666667-42.666667 42.666667s-42.666667-18.773333-42.666666-42.666667v-100.693333h-100.693334c-23.893333 0-42.666667-18.773333-42.666666-42.666667s18.773333-42.666667 42.666666-42.666667h100.693334V256c0-23.893333 18.773333-42.666667 42.666666-42.666667s42.666667 18.773333 42.666667 42.666667v100.693333h100.693333c23.893333 0 42.666667 18.773333 42.666667 42.666667 1.706667 22.186667-18.773333 42.666667-42.666667 42.666667z" fill="#bababa" p-id="9326"></path></svg>