<?xml version="1.0" standalone="no"?>
<!DOCTYPE svg PUBLIC "-//W3C//DTD SVG 20010904//EN"
 "http://www.w3.org/TR/2001/REC-SVG-20010904/DTD/svg10.dtd">
<svg version="1.0" xmlns="http://www.w3.org/2000/svg"
 width="512.000000pt" height="512.000000pt" viewBox="0 0 512.000000 512.000000"
 preserveAspectRatio="xMidYMid meet">
<metadata>
Created by potrace 1.14, written by Peter Selinger 2001-2017
</metadata>
<g transform="translate(0.000000,512.000000) scale(0.100000,-0.100000)"
fill="#000000" stroke="none">
<path d="M2125 4620 c-11 -4 -31 -20 -45 -35 l-25 -27 -2 -576 c-2 -462 1
-590 12 -642 36 -169 96 -281 213 -400 70 -70 179 -150 206 -150 9 0 16 -4 16
-10 0 -5 8 -10 18 -10 10 0 22 -4 27 -9 6 -5 48 -19 95 -31 82 -21 230 -29
305 -17 63 10 131 28 165 43 92 42 140 67 151 80 6 8 15 14 20 14 26 0 154
132 203 209 70 109 108 214 123 331 4 36 8 310 7 610 0 512 -1 547 -19 573
-10 15 -31 35 -46 43 -61 31 -116 11 -176 -63 -21 -27 -40 -50 -43 -53 -3 -3
-39 -45 -80 -95 -41 -49 -84 -100 -94 -112 -20 -23 -21 -23 -325 -23 l-306 0
-72 88 c-39 48 -83 101 -98 117 -14 17 -40 49 -58 71 -56 73 -115 98 -172 74z"/>
<path d="M909 3536 c-58 -42 -103 -85 -115 -109 -14 -26 -14 -31 2 -55 10 -15
22 -32 28 -38 9 -9 138 -151 171 -188 21 -24 222 -243 257 -281 70 -75 73 -85
75 -330 7 -543 9 -561 72 -656 17 -24 109 -123 206 -221 98 -97 175 -180 172
-185 -3 -5 -9 -36 -12 -69 -27 -241 45 -468 198 -624 70 -72 124 -110 220
-155 156 -74 204 -80 647 -80 414 0 447 3 584 51 156 54 310 179 388 314 106
182 131 420 67 645 -11 39 -29 95 -39 125 -10 30 -57 177 -105 325 -48 149
-102 315 -120 370 -18 55 -54 166 -80 248 -26 81 -48 147 -49 147 -2 0 -14
-10 -27 -21 -41 -37 -151 -105 -221 -138 -201 -94 -475 -112 -678 -44 -117 39
-262 117 -325 175 -16 15 -33 24 -36 20 -4 -4 -29 -77 -57 -162 -28 -85 -80
-247 -117 -360 -37 -113 -68 -209 -69 -215 -1 -5 -7 -23 -13 -40 -6 -16 -26
-76 -44 -133 -18 -56 -34 -101 -35 -100 -2 2 -57 56 -123 121 -109 108 -161
167 -146 167 3 0 1 8 -4 19 -7 11 -11 151 -11 360 -1 278 -4 350 -17 393 -33
113 -50 136 -353 468 -142 155 -185 203 -205 226 -27 31 -66 45 -86 30z"/>
</g>
</svg>
