<?xml version="1.0" standalone="no"?>
<!DOCTYPE svg PUBLIC "-//W3C//DTD SVG 20010904//EN"
 "http://www.w3.org/TR/2001/REC-SVG-20010904/DTD/svg10.dtd">
<svg version="1.0" xmlns="http://www.w3.org/2000/svg"
 width="512.000000pt" height="512.000000pt" viewBox="0 0 512.000000 512.000000"
 preserveAspectRatio="xMidYMid meet">
<metadata>
Created by potrace 1.14, written by Peter Selinger 2001-2017
</metadata>
<g transform="translate(0.000000,512.000000) scale(0.100000,-0.100000)"
fill="#000000" stroke="none">
<path d="M2140 4033 c-429 -74 -828 -365 -1027 -749 -272 -522 -212 -1129 157
-1587 211 -263 516 -444 865 -513 133 -27 395 -25 531 4 180 39 331 97 476
185 42 26 79 47 81 47 3 0 7 -10 11 -23 3 -13 24 -45 46 -70 80 -90 160 -82
330 33 157 106 177 97 219 -98 22 -100 51 -166 80 -182 41 -21 104 -12 167 26
86 51 109 76 95 103 -16 30 -32 27 -103 -19 -74 -48 -105 -58 -123 -39 -8 8
-28 70 -44 139 -17 69 -39 136 -49 149 -32 44 -68 63 -111 63 -44 -1 -73 -15
-208 -101 -50 -33 -97 -55 -122 -58 -36 -5 -44 -2 -70 26 -16 17 -35 48 -41
67 l-12 35 87 81 c298 279 458 647 459 1053 0 346 -104 640 -322 913 -214 268
-541 459 -881 516 -119 20 -374 20 -491 -1z m155 -75 c-2 -13 -16 -77 -31
-143 -117 -536 -382 -1074 -742 -1505 -85 -102 -259 -286 -302 -320 l-39 -31
-26 50 c-14 28 -34 73 -45 101 l-20 51 103 112 c411 446 706 984 852 1552 15
61 31 113 34 117 7 8 155 35 199 37 18 1 21 -3 17 -21z m309 6 c55 -9 104 -19
108 -22 4 -4 -34 -39 -85 -79 -51 -39 -120 -97 -155 -129 l-64 -57 -41 41 -41
41 13 63 c7 35 17 84 23 111 l10 47 65 0 c36 0 111 -7 167 -16z m352 -105 c52
-23 94 -44 93 -48 0 -3 -37 -32 -82 -63 -99 -69 -199 -148 -290 -229 -37 -33
-71 -59 -76 -57 -4 2 -38 38 -76 81 l-67 78 23 26 c31 33 154 135 249 207 88
67 86 67 226 5z m-1350 -220 c-125 -329 -274 -600 -485 -883 l-96 -129 -3 44
c-8 102 36 301 99 458 73 178 172 323 321 467 82 79 196 169 205 160 1 -1 -17
-54 -41 -117z m1800 -111 c51 -55 94 -107 94 -117 0 -4 -37 -33 -82 -64 -113
-76 -280 -211 -383 -309 -49 -46 -90 -77 -94 -72 -15 16 -111 175 -111 184 0
33 482 418 525 420 6 0 29 -19 51 -42z m-1134 -248 c296 -351 546 -821 673
-1263 47 -165 87 -346 104 -472 6 -44 13 -92 16 -106 4 -25 -2 -30 -80 -68
-47 -23 -91 -41 -98 -41 -9 0 -20 39 -35 133 -90 546 -327 1105 -659 1554 -43
58 -77 110 -75 116 12 44 86 217 92 215 4 -2 32 -32 62 -68z m1435 -283 c43
-148 48 -130 -74 -227 -59 -47 -178 -155 -265 -240 l-158 -155 -45 115 -45
115 83 83 c142 144 448 396 472 389 6 -2 20 -38 32 -80z m-1708 -346 c236
-362 414 -795 500 -1218 17 -82 31 -159 31 -170 0 -18 -8 -21 -75 -26 -41 -4
-87 -4 -103 -1 -28 6 -30 10 -52 112 -75 354 -243 775 -435 1089 -36 58 -65
110 -65 115 0 8 121 207 126 208 1 0 34 -49 73 -109z m1731 -348 c-28 -132
-110 -323 -192 -448 -47 -70 -139 -185 -148 -185 -6 0 -50 238 -50 269 0 8 26
46 58 84 78 97 329 353 337 345 4 -3 1 -33 -5 -65z m-2050 -294 c94 -185 227
-535 255 -666 l6 -32 -43 15 c-24 8 -83 36 -132 62 l-89 47 -48 130 c-27 72
-90 212 -139 313 -104 210 -104 174 5 294 l60 66 39 -67 c21 -36 60 -109 86
-162z m-153 -378 c24 -57 42 -108 41 -113 -5 -14 -140 104 -206 182 -34 39
-81 99 -104 132 l-41 62 64 57 64 58 69 -137 c38 -75 89 -184 113 -241z"/>
</g>
</svg>
